<?xml version="1.0" encoding="UTF-8"?>
<!-- Generator: Adobe Illustrator 27.1.0, SVG Export Plug-In . SVG Version: 6.00 Build 0)  -->
<svg xmlns="http://www.w3.org/2000/svg" xmlns:xlink="http://www.w3.org/1999/xlink" version="1.1" id="Calque_1" x="0px" y="0px" viewBox="0 0 444 266.2" style="enable-background:new 0 0 444 266.2;" xml:space="preserve">
<style type="text/css">
	.st0{fill:none;}
	.st1{fill:#020203;}
	.st2{fill:#FFFFFF;}
</style>
<g>
	<path class="st0" d="M59.8,219.8c-1.5,0-2.8,1.2-2.8,2.6c0,1.4,1.2,2.6,2.8,2.6c1.5,0,2.8-1.2,2.8-2.6S61.4,219.8,59.8,219.8z"></path>
	<path class="st0" d="M258.1,59.3c-0.5-0.4-0.9-0.9-1.4-1.4c-0.2,0.2-0.8,0.8-1,1c0.5,0.5,1.1,0.9,1.5,1.3   C257.5,59.9,257.8,59.5,258.1,59.3z"></path>
	<path class="st0" d="M258.3,29.5c0.5,0.5,0.9,1,1.3,1.5c1-1,1.9-1.8,2.7-2.6c-0.4-0.6-0.8-1-1.3-1.5   C260.1,27.8,259.2,28.7,258.3,29.5z"></path>
	<path class="st0" d="M252.4,62.2c-0.4,0.2-0.7,0.7-0.9,0.8c0.5,0.6,1,1,1.4,1.5c0.3-0.3,0.7-0.7,0.9-0.9   C253.3,63.1,252.7,62.6,252.4,62.2z"></path>
	<path class="st0" d="M249.2,65.3c0.5,0.6,1,0.9,1.4,1.5c0.3-0.3,0.7-0.7,0.9-0.9c-0.4-0.4-1-1-1.4-1.4   C249.8,64.7,249.3,65.3,249.2,65.3z"></path>
	<path class="st0" d="M255.1,62.4c0.3-0.2,0.7-0.7,0.9-0.9c-0.5-0.5-0.9-1-1.4-1.5c-0.3,0.3-0.7,0.7-0.9,1   C254.2,61.5,254.6,62,255.1,62.4z"></path>
	<path class="st0" d="M47.9,231c-1.5,0-2.8,1.2-2.8,2.6s1.2,2.6,2.8,2.6c1.5,0,2.8-1.2,2.8-2.6S49.4,231,47.9,231z"></path>
	<path class="st0" d="M336,211.8c-0.2-0.2-0.5-0.4-0.8-0.4c-1.6,0-3.3,0.1-4.9,0.1c0,0-0.1,0.1-0.2,0.2c0.9,0.8,1.7,1.7,2.6,2.5   c0.2,0.1,0.3,0.2,0.4,0.2c1.7-0.1,3.4-0.1,5.3-0.2C337.5,213.3,336.8,212.5,336,211.8z"></path>
	<path class="st0" d="M330.4,206.2c-0.9-1.2-2-1.6-3.5-1.4c-1.1,0.1-2.2,0.1-3.5,0.1c1,1,1.8,1.8,2.6,2.6c0.1,0.2,0.3,0.3,0.5,0.3   c1.7-0.1,3.4-0.1,5.3-0.2C331.2,207.1,330.8,206.7,330.4,206.2z"></path>
	<path class="st0" d="M176.5,68.1c-3.8-3.8-7.5-7.5-11.3-11.3c-0.2-0.2-0.4-0.4-0.7-0.7c-0.2,0.8-0.5,1.4-0.7,2.1   c5.6,5.5,11.1,11,16.7,16.6l1.2,1.2h2.6l-1.5-1.5C180.7,72.3,178.6,70.2,176.5,68.1z"></path>
	<path class="st0" d="M342.3,217.8c-0.1-0.1-0.4-0.2-0.6-0.2c-1.7,0-3.3,0-5,0c0,0.1-0.1,0.2-0.1,0.3c0.8,0.9,1.7,1.7,2.6,2.6   c0.1,0.1,0.3,0.2,0.5,0.2c1.6,0,3.2-0.1,4.8-0.1c0,0,0.1-0.1,0.4-0.2C344,219.5,343.2,218.6,342.3,217.8z"></path>
	<path class="st0" d="M280.3,57.6c-0.2-0.7-0.4-1.4-0.7-2.1c-0.3,0.3-0.5,0.5-0.7,0.7c-3.8,3.8-7.6,7.5-11.3,11.3   c-2.1,2.1-4.2,4.3-6.3,6.4l-2.1,2.1h2.6l1.8-1.8C269.2,68.7,274.7,63.1,280.3,57.6z"></path>
	<path class="st0" d="M197.6,152.5c-3.8,4-7.5,7.7-11.3,11.6c-0.3-0.3-0.5-0.6-0.8-0.8c-0.2-0.2-0.4-0.4-0.7-0.5   c-0.2-0.1-0.6,0-0.7,0.1c-0.2,0.1-0.2,0.5-0.2,0.7s0.2,0.4,0.4,0.6c1.1,1.1,2.2,2.2,3.3,3.3c0.6,0.5,1.1,0.6,1.4,0.3   c0.3-0.4,0.2-0.9-0.3-1.4c-0.2-0.3-0.6-0.5-0.9-0.7c0.3-0.4,0.4-0.6,0.6-0.8c3.9-4,11.7-12,11.7-12l1.3-1.4h-2.9L197.6,152.5z"></path>
	<path class="st0" d="M97.9,24.2c0.6,0.6,1.3,1.3,1.9,2c1.1-1.1,2.1-2.1,3.1-3.1c-0.6-0.6-1.3-1.3-1.9-2   C99.9,22.1,99,23.1,97.9,24.2z"></path>
	<path class="st0" d="M96.6,16.4c-1.1,1-2,2-3.1,3.1c0.6,0.6,1.3,1.3,1.9,2c1-1,2-2,3.1-3.1C97.9,17.8,97.2,17.1,96.6,16.4z"></path>
	<path class="st0" d="M246.7,67.7c0.1,0,1,0.9,1.4,1.4c0.4-0.4,0.8-0.7,1-0.9c-0.5-0.4-1-0.9-1.5-1.4   C247.3,67.1,247,67.6,246.7,67.7z"></path>
	<path class="st0" d="M346.1,24c-1.1-1.1-2-2.1-3.1-3.1c-0.6,0.6-1.3,1.4-1.9,2c1.1,1.1,2.1,2.1,3.1,3.1   C344.8,25.3,345.5,24.6,346.1,24z"></path>
	<path class="st0" d="M350.5,19.3c-1.1-1.1-2-2.1-3.1-3.1c-0.6,0.7-1.3,1.4-1.9,2c1.1,1.1,2.1,2.1,3.1,3.1   C349.2,20.6,349.9,19.9,350.5,19.3z"></path>
	<path class="st0" d="M245.2,69.2c-0.3,0.2-0.7,0.7-0.9,0.9c0.5,0.5,0.9,1,1.3,1.4c0.3-0.2,1-0.8,1.1-0.9   C246.2,70,245.6,69.7,245.2,69.2z"></path>
	<path class="st0" d="M241.9,72.4c0.5,0.6,0.9,1,1.3,1.4c0.3-0.2,0.7-0.5,1-0.8c-0.5-0.5-1-1-1.4-1.4   C242.4,71.9,242.1,72.3,241.9,72.4z"></path>
	<path class="st0" d="M107.5,217.4c-1.7,0-3.3,0-5,0c-0.2,0-0.5,0.1-0.6,0.2c-0.9,0.8-1.7,1.7-2.6,2.6c0.2,0.1,0.3,0.2,0.4,0.2   c1.6,0,3.2,0.1,4.8,0.1c0.2,0,0.4-0.1,0.5-0.2c0.8-0.8,1.7-1.7,2.6-2.6C107.6,217.6,107.5,217.5,107.5,217.4z"></path>
	<path class="st0" d="M249.1,60.6c0.2-0.3,0.6-0.6,0.9-0.9c-0.2-0.3-0.6-0.6-0.9-1c0.4-0.4,0.8-0.8,1.2-1.2c0.4,0.3,0.6,0.7,1,1   c0.2-0.3,0.6-0.6,0.9-0.9c-0.3-0.4-0.7-0.7-1-1c0.4-0.4,0.8-0.8,1.2-1.2c0.3,0.3,0.5,0.7,0.9,1c0.3-0.2,0.4-0.4,0.7-0.6   c-0.8-0.9-1.5-1.7-2.3-2.5c-1.8,1.7-3.6,3.3-5.3,5c-3.1,2.9-6.1,5.8-9.1,8.7c-2.5,2.4-4.9,4.7-7.3,7.1l-2.1,1.9h3.2L248,59.6   C248.4,59.9,248.7,60.3,249.1,60.6z"></path>
	<path class="st0" d="M240.4,73.9c-0.4,0.3-0.7,0.8-0.9,0.8c0.5,0.6,0.9,1,1.2,1.3h0.1c0.3-0.2,0.6-0.5,0.9-0.7   C241.3,74.8,240.8,74.3,240.4,73.9z"></path>
	<path class="st0" d="M324.5,200.5c-0.9-1.3-2.1-1.8-3.7-1.5c-1,0.1-2.1,0.1-3.1,0.1c0,0.1-0.1,0.1-0.1,0.2c0.8,0.7,1.5,1.4,2.2,2.1   c0.1,0.1,0.3,0.1,0.5,0.1c1.6,0,3.2-0.1,4.8-0.1C325.1,201,324.7,200.8,324.5,200.5z"></path>
	<path class="st0" d="M193.5,67.1c0.4-0.6,0.9-0.9,1.4-1.4c-0.1-0.2-0.6-0.7-0.9-0.9c-0.4,0.4-0.9,0.9-1.4,1.4   C192.8,66.4,193.2,66.8,193.5,67.1z"></path>
	<path class="st0" d="M191.2,64.7c0.3-0.5,0.9-0.9,1.4-1.4c-0.2-0.2-0.5-0.6-0.9-0.9c-0.4,0.4-1,0.9-1.4,1.4   C190.5,63.9,190.9,64.4,191.2,64.7z"></path>
	<path class="st0" d="M198.5,71.7c0.4-0.4,0.8-0.9,1.3-1.4c-0.2-0.2-0.6-0.7-0.9-0.9c-0.4,0.5-1,0.8-1.5,1.4   C197.6,70.9,198.2,71.5,198.5,71.7z"></path>
	<path class="st0" d="M196,69.4c0.4-0.6,1.2-1.4,1.4-1.3c-0.3-0.3-0.6-0.7-0.9-1c-0.5,0.5-1,0.9-1.5,1.4   C195.2,68.7,195.7,69,196,69.4z"></path>
	<path class="st0" d="M185.7,29.7c-0.8-0.8-1.7-1.7-2.7-2.6c-0.5,0.5-0.9,0.9-1.4,1.5c0.9,0.8,1.8,1.7,2.8,2.6   C184.8,30.7,185.2,30.2,185.7,29.7z"></path>
	<path class="st0" d="M111.3,214c0.9-0.8,1.7-1.7,2.6-2.5c-0.1-0.1-0.2-0.2-0.2-0.2c-1.6,0-3.3-0.1-4.9-0.1c-0.3,0-0.6,0.2-0.8,0.4   c-0.8,0.7-1.5,1.5-2.4,2.4c1.9,0.1,3.6,0.1,5.3,0.2C111,214.2,111.2,214.1,111.3,214z"></path>
	<path class="st0" d="M255.6,165c0.2,0.2,0.3,0.4,0.6,0.8c-0.3,0.3-0.6,0.4-0.9,0.7c-0.5,0.6-0.6,1.1-0.3,1.4   c0.4,0.3,0.9,0.2,1.4-0.3c1.1-1.1,2.2-2.2,3.3-3.3c0.2-0.1,0.4-0.4,0.4-0.6c0-0.2-0.1-0.6-0.2-0.7c-0.1-0.1-0.5-0.2-0.7-0.1   c-0.3,0.1-0.5,0.3-0.7,0.5c-0.3,0.3-0.5,0.5-0.8,0.8c-3.8-3.9-7.5-7.7-11.3-11.6l-1-1.1h-2.9l1.5,1.5   C243.9,153,251.7,161,255.6,165z"></path>
	<path class="st0" d="M396.2,231.2c-1.5,0-2.8,1.2-2.8,2.6s1.2,2.6,2.8,2.6c1.5,0,2.8-1.1,2.8-2.6   C399,232.4,397.8,231.2,396.2,231.2z"></path>
	<path class="st0" d="M200.9,74.1c0.4-0.4,0.8-0.9,1.3-1.4c-0.3-0.2-0.6-0.6-1-0.9c-0.4,0.4-0.9,0.9-1.4,1.4   C200.2,73.5,200.6,73.8,200.9,74.1z"></path>
	<path class="st0" d="M187.4,58.2c-0.6,0.4-0.9,1-1.4,1.4c0.2,0.2,0.5,0.5,0.9,0.9c0.4-0.4,1-0.7,1.5-1.3   C188.2,59,187.6,58.4,187.4,58.2z"></path>
	<path class="st0" d="M384.3,220c-1.5,0-2.8,1.2-2.8,2.6c0,1.4,1.2,2.6,2.8,2.6c1.5,0,2.8-1.2,2.8-2.6S385.9,220,384.3,220z"></path>
	<path class="st0" d="M189,62.6c0.4-0.5,0.9-1,1.5-1.4c-0.3-0.3-0.7-0.7-1-1c-0.5,0.5-0.9,1-1.4,1.5C188.3,61.9,188.7,62.4,189,62.6   z"></path>
	<path class="st0" d="M124.3,201.2c0.7-0.7,1.4-1.4,2.1-2.1c0-0.1-0.1-0.1-0.1-0.2c-1,0-2.1,0-3.1-0.1c-1.6-0.3-2.8,0.2-3.7,1.5   c-0.2,0.3-0.6,0.5-0.6,0.9c1.7,0.1,3.3,0.1,4.9,0.1C124,201.3,124.2,201.3,124.3,201.2z"></path>
	<path class="st0" d="M118.1,207.4c0.8-0.9,1.6-1.7,2.6-2.7c-1.3,0-2.4,0-3.5-0.1c-1.5-0.2-2.6,0.2-3.5,1.4   c-0.4,0.5-0.8,0.9-1.4,1.4c1.9,0.1,3.6,0.1,5.3,0.2C117.8,207.6,118,207.5,118.1,207.4z"></path>
	<path class="st1" d="M261,152.8c0.3,0.3,0.5,0.6,0.7,0.8c6.6,6.6,13.2,13.2,19.8,19.9c0.6,0.7,1.3,1.1,2.2,1.3   c14.5,4.2,29,8.5,43.5,12.7c0.3,0.1,0.6,0.1,0.9,0.2c-0.9-0.9-1.7-1.9-2.6-2.7c-9.5-9.2-19-18.4-28.5-27.6   c-0.6-0.6-3.2-3.1-6.1-5.9h-31.2L261,152.8z"></path>
	<path class="st1" d="M246.4,152.6c3.8,3.9,7.5,7.7,11.3,11.6c0.3-0.3,0.5-0.5,0.8-0.8c0.2-0.2,0.4-0.4,0.7-0.5   c0.2-0.1,0.6,0,0.7,0.1s0.2,0.5,0.2,0.7s-0.2,0.5-0.4,0.6c-1.1,1.1-2.2,2.2-3.3,3.3c-0.5,0.5-1,0.6-1.4,0.3   c-0.3-0.3-0.2-0.8,0.3-1.4c0.3-0.3,0.6-0.4,0.9-0.7c-0.3-0.4-0.4-0.6-0.6-0.8c-3.9-4-11.7-12-11.7-12l-1.5-1.5H240l-5.6,6.1   c-0.1,1.2-0.1,2.4-0.2,3.4c0,0.5,0.1,0.9,0.5,1.3c7.6,7.9,15.1,15.9,22.7,23.8c1,1,1.4,2,1.3,3.4c-0.4,3.9-0.6,7.7-0.9,11.6   c-0.1,1.3-0.2,2.5-0.4,3.8c0,0.3,0,0.7,0,1c18.2,5.8,36.5,11.6,54.7,17.4l0.1-0.1c-16-16.5-32.1-32.9-48.3-49.6   c-0.3,0.4-0.5,0.7-0.8,1c-0.1,0.2-0.3,0.3-0.5,0.4c-0.3,0.2-0.7,0.3-1-0.1c-0.3-0.3-0.3-0.7,0-1c0.1-0.1,0.2-0.2,0.2-0.3   c1.3-1.3,2.5-2.5,3.8-3.8c0.1-0.1,0.2-0.2,0.3-0.2c0.3-0.2,0.6-0.2,0.9,0.1s0.3,0.6,0.1,0.9c-0.1,0.2-0.3,0.4-0.4,0.5   c-0.3,0.2-0.6,0.5-0.9,0.7c0.3,0.3,0.5,0.6,0.7,0.8c16.8,17.2,33.7,34.4,50.5,51.7c0.4,0.4,0.9,0.7,1.5,0.9   c5.1,1.6,10.1,3.2,15.2,4.9c0.3,0.1,0.7,0.2,1,0.3c0-0.1,0.1-0.1,0.1-0.2c-0.2-0.2-0.4-0.5-0.6-0.7c-9.9-10-19.8-20-29.7-30   c-7.2-7.3-14.5-14.6-21.7-21.9c-8.2-8.3-16.4-16.6-24.6-24.9l-1.2-1.2h-11.6L246.4,152.6z"></path>
	<path class="st1" d="M443.9,265.8c-2.4-2.2-4.7-4.4-7.1-6.5c-1.5-1.4-3-2.8-4.5-4.1c-16.9-15.8-33.8-31.5-50.7-47.3   c-0.6-0.6-1.2-0.8-2-0.8c-2.6,0.1-5.3,0.1-7.9,0.2c-0.9,0-1.5-0.2-2.1-0.8c-9.5-9-19-17.9-28.5-26.9c-1.6-1.6-3.3-3.1-5-4.6   c-0.7-0.6-0.9-1.2-0.5-2.1c0.7-1.7,1.2-3.5,1.8-5.2c0.1-0.3,0.1-0.7,0-1.1c0.6-0.6,1.2-1.3,1.9-1.9c-1.3-1.2-2.5-2.4-3.9-3.6   c-0.7,0.7-1.3,1.3-2,2c-1.3-1.2-2.5-2.4-3.8-3.6c0.7-0.7,1.3-1.3,2-2c-1.3-1.2-2.5-2.3-3.8-3.5c-0.7,0.7-1.3,1.3-1.9,1.9   c-1-0.9-2-1.8-3-2.7l-0.9-0.8l0.9-0.9H294l2.2,2.1l-0.1,0.1c4.8,4.6,9.7,9.2,14.5,13.8c9.9,9.5,19.8,19,29.7,28.5   c13.4,12.9,26.8,25.8,40.1,38.7c5.6,5.3,11.1,10.7,16.7,16.1c0.6,0.6,1.3,0.8,2,1.1c3.8,1.3,7.7,2.5,11.5,3.7   c5.9,1.9,11.8,3.8,17.7,5.6c5,1.6,10,3.2,15,4.8c0.2,0.1,0.4,0.1,0.7,0.2C443.9,265.8,443.9,265.8,443.9,265.8z M384.3,225.2   c-1.6,0-2.8-1.2-2.8-2.6c0-1.4,1.3-2.6,2.8-2.6c1.6,0,2.8,1.2,2.8,2.6S385.8,225.2,384.3,225.2z M396.2,236.4   c-1.6,0-2.8-1.2-2.8-2.6s1.3-2.6,2.8-2.6c1.6,0,2.8,1.2,2.8,2.6C399,235.3,397.7,236.4,396.2,236.4z"></path>
	<path class="st1" d="M180.5,74.8c-5.6-5.6-11.1-11.1-16.7-16.6c0.2-0.7,0.5-1.3,0.7-2.1c0.3,0.3,0.5,0.5,0.7,0.7   c3.8,3.8,7.5,7.5,11.3,11.3c2.1,2.1,4.2,4.2,6.3,6.4l1.5,1.5h9.3l-1.2-1.1c-5.1-5.1-10.1-10.1-15.2-15.2c0.9-1.1,2-2,3-3s2-2,3-3   s2.1-2,3.2-3.1c-5.1-4.9-10.1-9.8-15.1-14.6c-4.6,4.5-9,8.9-13.5,13.4c0.4,0.4,0.9,0.9,1.3,1.3c0.5,0.5,0.5,0.6,0.2,1.3   c-1.1,2.4-2.2,4.8-3.2,7.2c-0.1,0.2-0.2,0.5-0.3,0.8c0.2,0.2,0.3,0.4,0.5,0.6c3.8,3.9,7.6,7.9,11.5,11.8c0.8,0.8,1.6,1.6,2.4,2.3   l1.3,1.3h10.1L180.5,74.8z"></path>
	<path class="st1" d="M163,22.8c1,0.9,1,1.1,0,2.1c0,0-0.1,0.1-0.1,0.2c8.6,8.3,17,16.5,25.8,25c-3,3-6,6.1-9,9.2   c0.2,0.2,0.5,0.6,0.7,0.7c3.1,3,6.2,6.1,9.2,9.1c0.4,0.4,0.5,0.4,1,0.3c0.8-0.1,1.3-0.3,1.7-0.2c0.5,0.1,0.8,0.7,1.5,1.4l5.4,5.3   l6.8-6.2l-10-9.9c-0.3,0.3-0.6,0.7-1,1c-0.3-0.2-0.6-0.6-0.9-0.9c0.3-0.3,0.6-0.7,0.9-1c-0.4-0.4-0.8-0.8-1.2-1.2   c-0.3,0.3-0.6,0.6-1,1c-0.3-0.3-0.7-0.6-0.9-0.9c0.3-0.4,0.7-0.6,1-1c-0.4-0.4-0.8-0.8-1.2-1.2c-0.4,0.3-0.6,0.7-0.9,1   c-0.3-0.2-0.5-0.4-0.7-0.6c0.8-0.8,1.5-1.6,2.3-2.5c1.8,1.7,3.5,3.4,5.3,5c3,2.9,6.1,5.8,9.1,8.7c0.3,0.3,0.7,0.7,1,1l6.3-5.7   c-5.9-5.6-11.7-11.1-17.6-16.7c-0.5-0.5-1.1-0.8-1.8-0.8c-0.8,0-1.6-0.1-2.4-0.2c-0.4-0.1-0.8-0.2-1.1-0.5c-4.2-4-8.4-8-12.6-12   c-0.1-0.1-0.2-0.2-0.4-0.4c0.5-0.4,0.9-0.8,1.4-1.2c0.1,0.1,0.3,0.2,0.5,0.4c3.9,3.7,7.9,7.4,11.8,11.2c0.6,0.5,1.1,0.8,1.9,0.9   c4,0.3,7.9,0.7,11.9,1.1c0.1,0,0.3,0,0.4,0v-0.1v-0.1c-0.1-0.1-0.1-0.2-0.2-0.2c-5.4-5-10.8-10.1-16.2-15.1c0,0,0-0.1-0.1-0.1   c0.4-0.4,0.8-0.9,1.3-1.4c-0.4-0.4-0.7-0.7-1.2-1.1c-0.5,0.4-0.9,0.8-1.5,1.3c-0.9-0.9-1.9-1.7-2.9-2.7c0.6-0.5,1.1-0.9,1.6-1.4   c-1.5-1.4-2.8-2.6-4.3-4c-0.4,0.4-0.8,0.7-1.1,1.1c-0.5,0.7-1.1,0.8-1.9,0.6c-1.5-0.3-3-0.6-4.5-0.9c-5.9-1.1-11.8-2.1-17.7-3.2   c-0.1,0-0.1,0-0.4,0c0.3,0.3,0.5,0.5,0.7,0.7C159.5,19.4,161.3,21.1,163,22.8z M186.9,60.5c-0.4-0.4-0.7-0.7-0.9-0.9   c0.5-0.4,0.8-1,1.4-1.4c0.2,0.2,0.8,0.8,1,1C187.9,59.8,187.3,60.1,186.9,60.5z M202.2,72.7c-0.5,0.5-0.9,1-1.3,1.4   c-0.3-0.3-0.7-0.6-1.1-0.9c0.5-0.5,1-1,1.4-1.4C201.6,72.1,201.9,72.5,202.2,72.7z M198.9,69.4c0.3,0.2,0.7,0.7,0.9,0.9   c-0.5,0.5-0.9,1-1.3,1.4c-0.3-0.2-0.9-0.8-1.1-0.9C197.9,70.2,198.5,69.9,198.9,69.4z M196.5,67.1c0.3,0.3,0.6,0.7,0.9,1   c-0.2-0.1-1,0.7-1.4,1.3c-0.3-0.4-0.8-0.7-1-0.9C195.5,68,196,67.6,196.5,67.1z M194,64.8c0.3,0.2,0.8,0.7,0.9,0.9   c-0.5,0.5-1,0.8-1.4,1.4c-0.3-0.3-0.7-0.7-0.9-0.9C193.1,65.7,193.6,65.2,194,64.8z M191.7,62.4c0.4,0.3,0.7,0.7,0.9,0.9   c-0.5,0.5-1.1,0.9-1.4,1.4c-0.3-0.3-0.7-0.8-0.9-0.9C190.7,63.3,191.3,62.8,191.7,62.4z M190.5,61.2c-0.6,0.4-1.1,0.9-1.5,1.4   c-0.3-0.2-0.7-0.7-0.9-0.9c0.5-0.5,0.9-1,1.4-1.5C189.8,60.5,190.2,60.9,190.5,61.2z M183,27.1c1,0.9,1.9,1.8,2.7,2.6   c-0.5,0.5-0.9,1-1.3,1.5c-1-0.9-1.9-1.8-2.8-2.6C182.1,28,182.5,27.6,183,27.1z"></path>
	<path class="st1" d="M199.1,45.4c3.1,3,6.1,5.8,9.1,8.6c2.5,2.3,4.9,4.6,7.4,7l4.5-4.1c-3.6-3.2-7.1-6.5-10.6-9.8   c-0.6-0.6-1.3-0.9-2.2-1c-2.6-0.2-5.1-0.4-7.6-0.7C199.6,45.4,199.4,45.4,199.1,45.4z"></path>
	<path class="st1" d="M167.5,74.8C154.3,61.2,141,47.6,127.8,34c0-0.1,0.1-0.1,0.1-0.2c0.8,0,1.6,0,2.4,0.1c0.2,0,0.5,0.3,0.7,0.5   c3.7,3.8,7.4,7.6,11.2,11.4c3.8,3.9,7.7,7.8,11.5,11.8c0.2,0.2,1,1,1.3,1.3c1-2.3,2.1-4.3,3.1-6.6c-0.4-0.4-1.6-1.6-1.9-2   c-4.2-4.3-8.5-8.5-12.7-12.8c-3.1-3.1-6.1-6.2-9.2-9.3c-0.5-0.5-0.9-0.7-1.6-0.7c-3.3,0-6.6-0.1-9.9-0.2c-0.9,0-1.5-0.3-2.1-1   c-6.2-6.4-12.4-12.8-18.7-19.2c-0.5-0.5-1-0.8-1.8-1c-1.4-0.2-2.8-0.5-4.2-0.8c-0.2,0-0.5,0-1-0.1c1.3,1.4,2.4,2.6,3.5,3.8   c-1.4-0.1-2.8,0-3.8-1.3C94,6.7,93,6,92.2,5.1c-0.4-0.5-0.9-0.7-1.5-0.8c-5-0.9-10-1.8-15-2.7c-2.4-0.4-4.8-0.9-7.2-1.3   c-0.1,0-0.3,0-0.6-0.1c0.3,0.4,0.5,0.6,0.8,0.9c2.4,2.6,4.9,5.2,7.3,7.8c6.1,6.7,12.2,13.2,18.3,19.8c1.2,1.3,2.5,2.6,3.7,4   c0.6,0.7,1.1,0.8,2,0.6c3.3-0.6,6.6-1.2,9.9-1.8c0.2,0,0.5,0,0.7-0.1c1.3-0.6,2.1,0.1,3,1c5.2,5.5,10.5,11,15.8,16.5   c1.3,1.4,1.3,1.4,0.9,3.3c-0.2,1.1-0.4,2.1-0.7,3.2c-0.1,0.5,0,0.8,0.3,1.2c2,2,3.9,4.1,5.8,6.1c3.6,3.8,7.3,7.7,10.9,11.5l1.7,1.8   h20.4L167.5,74.8z M93.5,19.5c1.1-1.1,2-2.1,3.1-3.1c0.6,0.7,1.3,1.4,1.9,2c-1.1,1.1-2.1,2.1-3.1,3.1   C94.8,20.8,94.1,20.1,93.5,19.5z M99.8,26.2c-0.6-0.7-1.3-1.4-1.9-2c1.1-1.1,2-2.1,3.1-3.1c0.6,0.7,1.3,1.4,1.9,2   C101.9,24.1,100.9,25.1,99.8,26.2z"></path>
	<path class="st1" d="M337.2,196.2c-1.5-1.4-3-2.9-4.5-4.3c-0.4-0.4-0.9-0.7-1.5-0.9c-6.4-1.9-12.8-3.8-19.3-5.7   c-8.2-2.4-16.4-4.8-24.6-7.2c-0.3-0.1-0.6-0.1-1-0.2c0.3,0.3,0.5,0.5,0.6,0.7c6.7,6.7,13.4,13.5,20.1,20.2c0.5,0.5,0.9,0.7,1.6,0.6   c0.8-0.1,1.7,0,2.6-0.1c0.7-0.1,1.2,0.1,1.7,0.7c3,3.1,6.1,6.1,9.1,9.1c5.2,5.2,10.4,10.4,15.6,15.6c0.5,0.5,0.7,1,0.6,1.7   c-0.1,0.8-0.2,1.6-0.3,2.3c-0.1,0.4,0.1,0.7,0.4,1c1,1,2,2,3.1,3.1c0.2,0.2,0.4,0.3,0.7,0.4c8.6,2.8,17.3,5.6,25.9,8.3   c7.5,2.4,15,4.8,22.6,7.3c0.3,0.1,0.7,0.2,1.1,0.3c-0.5-0.5-0.9-1-1.3-1.4C372.7,230.6,354.9,213.4,337.2,196.2z M320.3,201.5   c-0.2,0-0.4,0-0.5-0.1c-0.7-0.7-1.4-1.4-2.2-2.1c0-0.1,0.1-0.1,0.1-0.2c1,0,2.1,0,3.1-0.1c1.6-0.3,2.8,0.2,3.7,1.5   c0.2,0.3,0.6,0.5,0.6,0.9C323.5,201.4,321.9,201.5,320.3,201.5z M326,207.5c-0.8-0.8-1.6-1.6-2.6-2.6c1.3,0,2.4,0,3.5-0.1   c1.5-0.2,2.6,0.2,3.5,1.4c0.4,0.5,0.8,0.9,1.4,1.4c-1.9,0.1-3.6,0.1-5.3,0.2C326.3,207.8,326.1,207.7,326,207.5z M332.7,214.2   c-0.9-0.8-1.7-1.7-2.6-2.5c0.1-0.1,0.2-0.2,0.2-0.2c1.6,0,3.3-0.1,4.9-0.1c0.3,0,0.6,0.2,0.8,0.4c0.8,0.7,1.5,1.5,2.4,2.4   c-1.9,0.1-3.6,0.1-5.3,0.2C333,214.4,332.9,214.3,332.7,214.2z M344.5,220.6c-1.6,0-3.2,0.1-4.8,0.1c-0.2,0-0.4-0.1-0.5-0.2   c-0.9-0.9-1.8-1.7-2.6-2.6c0-0.1,0.1-0.2,0.1-0.3c1.7,0,3.3,0,5,0c0.2,0,0.5,0.1,0.6,0.2c0.9,0.8,1.7,1.7,2.6,2.6   C344.6,220.5,344.5,220.6,344.5,220.6z"></path>
	<path class="st1" d="M243.8,175.4c-3.6-3.8-7.3-7.7-10.9-11.5c-0.5-0.6-0.8-1.1-0.8-1.9c0-0.5,0.1-1.1,0.1-1.7l-8,8.7   c5.9,6.2,11.7,12.5,17.6,18.8c1.3,1.4,1.3,1.4,3.2,1.5c0.9,0,1.4,0.4,1.9,1c2.7,2.9,5.4,5.8,8.1,8.7c0.2,0.2,0.4,0.3,0.7,0.7   c0.2-2.4,0.4-4.7,0.6-6.9c0.1-1,0.1-2,0.3-3c0.1-0.6-0.1-1-0.5-1.5C252,184,247.9,179.7,243.8,175.4z"></path>
	<path class="st1" d="M144.2,74.8c-0.2-0.2-0.3-0.4-0.5-0.6c-3.5-3.8-7.1-7.5-10.6-11.3c-1.8-1.9-3.5-3.8-5.2-5.6   c-0.4-0.4-0.5-0.8-0.4-1.3c0.3-1.4,0.6-2.8,0.9-4.1c0.1-0.5,0-0.8-0.3-1.2c-5.4-5.7-10.8-11.4-16.2-17.1c-0.5-0.6-1-0.8-1.8-0.6   c-2,0.4-4.1,0.8-6.1,1.1c-0.3,0-0.5,0.1-0.9,0.2c0.3,0.4,0.6,0.7,0.9,0.9c5.8,6.2,11.5,12.3,17.3,18.4c0.5,0.6,0.7,1.1,0.6,1.8   c-0.3,1.6-0.5,3.2-0.7,4.8c-0.1,0.4,0,0.7,0.3,1.1c2,2.1,3.9,4.2,5.9,6.2c0.2,0.2,0.3,0.3,0.6,0.5c0.5-0.5,1.1-1,1.6-1.5   c0.4,0.4,0.7,0.7,1,1.1c-0.5,0.6-1,1.1-1.6,1.7c0.8,0.8,1.6,1.7,2.4,2.6c0.6-0.5,1.1-1,1.7-1.6c0.8,0.9,1.6,1.7,2.5,2.6   c-0.6,0.6-1.1,1.1-1.7,1.7c0.3,0.1,0.5,0.2,0.6,0.2l1.2,1.2h9.7L144.2,74.8z"></path>
	<path class="st1" d="M141.7,32.9c4.2-4.3,8.5-8.6,12.9-12.9c-0.1-0.1-0.2-0.3-0.4-0.5c-1.2-1.2-2.4-2.3-3.6-3.5   c-0.3-0.3-0.7-0.5-1.1-0.6c-6.3-1.2-12.6-2.3-18.8-3.5c-3.8-0.7-7.5-1.4-11.3-2.1c-0.2,0-0.4,0-0.9-0.1   C126.3,17.6,134,25.3,141.7,32.9z"></path>
	<path class="st1" d="M143.7,33.5c4.5,4.4,9.1,9.1,13.7,13.7c4-4,7.9-7.9,11.9-11.9c-4.6-4.5-9.3-9-13.9-13.5   C151.5,25.7,147.7,29.5,143.7,33.5z"></path>
	<path class="st1" d="M121.8,25.1c0.4,0.4,0.8,0.6,1.5,0.6c2.7,0,5.3,0,8.1,0c-0.2-0.2-0.3-0.4-0.4-0.6   c-5.1-5.2-10.2-10.3-15.4-15.5c-0.4-0.4-0.7-0.6-1.3-0.7c-3-0.5-6-1.1-9-1.7c-0.3,0-0.5,0-1-0.1c0.4,0.4,0.6,0.7,0.8,0.9   C110.7,13.7,116.3,19.4,121.8,25.1z"></path>
	<path class="st1" d="M337.3,173.4c0.9,0.8,1.7,1.6,2.5,2.4c10.2,9.6,20.4,19.2,30.6,28.8c0.6,0.5,1.1,0.8,1.9,0.7   c0.7-0.1,1.5,0,2.3,0c0-0.1,0.1-0.2,0.1-0.2c-12.1-11.4-24.3-22.7-36.5-34.2C337.9,171.8,337.6,172.6,337.3,173.4z"></path>
	<path class="st1" d="M147.1,156.9c-9.5,9.2-19,18.4-28.5,27.6c-0.9,0.9-1.7,1.8-2.6,2.7c0.3-0.1,0.6-0.1,0.9-0.2   c14.5-4.2,29-8.5,43.5-12.7c0.9-0.3,1.6-0.7,2.2-1.3c6.6-6.6,13.2-13.3,19.8-19.9c0.2-0.2,0.4-0.5,0.7-0.8l0.8-0.8h-31.2   C150,154.1,147.7,156.3,147.1,156.9z"></path>
	<path class="st1" d="M200.1,152.9c0,0-7.8,8-11.7,12c-0.2,0.2-0.3,0.4-0.6,0.8c0.3,0.2,0.7,0.4,0.9,0.7c0.5,0.5,0.6,1,0.3,1.4   c-0.3,0.3-0.8,0.2-1.4-0.3c-1.1-1.1-2.2-2.2-3.3-3.3c-0.2-0.2-0.4-0.4-0.4-0.6s0-0.6,0.2-0.7c0.1-0.1,0.5-0.2,0.7-0.1   c0.3,0.1,0.5,0.3,0.7,0.5c0.3,0.2,0.5,0.5,0.8,0.8c3.8-3.9,7.5-7.6,11.3-11.6l0.9-1h-11.3l-1.6,1.6c-8.2,8.3-16.4,16.6-24.6,24.9   c-7.2,7.3-14.5,14.6-21.7,21.9c-9.9,10-19.8,20-29.7,30c-0.2,0.2-0.4,0.5-0.6,0.7c0,0.1,0.1,0.1,0.1,0.2c0.3-0.1,0.7-0.2,1-0.3   c5.1-1.6,10.1-3.3,15.2-4.9c0.6-0.2,1.1-0.5,1.5-0.9c16.8-17.2,33.7-34.5,50.5-51.7c0.2-0.2,0.4-0.4,0.7-0.8   c-0.3-0.3-0.6-0.5-0.9-0.7c-0.2-0.2-0.3-0.3-0.4-0.5c-0.2-0.3-0.1-0.6,0.1-0.9c0.3-0.3,0.6-0.3,0.9-0.1c0.1,0.1,0.2,0.2,0.3,0.2   c1.3,1.2,2.5,2.5,3.8,3.8c0.1,0.1,0.2,0.2,0.2,0.3c0.2,0.3,0.2,0.7,0,1c-0.3,0.3-0.7,0.3-1,0.1c-0.2-0.1-0.4-0.3-0.5-0.4   c-0.3-0.3-0.5-0.6-0.8-1c-16.2,16.6-32.2,33.1-48.3,49.6l0.1,0.1c18.2-5.8,36.5-11.6,54.7-17.4c0-0.4,0-0.7,0-1   c-0.1-1.3-0.3-2.5-0.4-3.8c-0.3-3.9-0.5-7.7-0.9-11.6c-0.1-1.5,0.3-2.4,1.3-3.4c7.6-7.9,15.1-15.9,22.7-23.8   c0.4-0.4,0.5-0.8,0.5-1.3c-0.2-2.4-0.3-5.8-0.5-8.2c0,0,0.6-0.7,1.5-1.7h-9.1L200.1,152.9z"></path>
	<path class="st1" d="M230,74.1c2.4-2.4,4.8-4.7,7.3-7.1c3-2.9,6-5.8,9.1-8.7c1.7-1.7,3.5-3.3,5.3-5c0.8,0.8,1.5,1.6,2.3,2.5   c-0.3,0.2-0.4,0.4-0.7,0.6c-0.4-0.3-0.6-0.7-0.9-1c-0.4,0.4-0.8,0.8-1.2,1.2c0.3,0.3,0.7,0.6,1,1c-0.3,0.3-0.7,0.6-0.9,0.9   c-0.4-0.3-0.6-0.7-1-1c-0.4,0.4-0.8,0.8-1.2,1.2c0.3,0.4,0.7,0.7,0.9,1c-0.3,0.3-0.7,0.6-0.9,0.9c-0.4-0.3-0.7-0.7-1-1L231.2,76   h9.6c-0.4-0.4-0.8-0.8-1.2-1.3c0.2,0,0.5-0.5,0.9-0.8c0.4,0.4,0.9,0.9,1.4,1.4c-0.3,0.3-0.6,0.5-0.9,0.7h3.5l5.8-5.7   c0.7-0.7,1.1-1.3,1.5-1.4s0.9,0.1,1.7,0.2c0.5,0.1,0.7,0.1,1-0.3c3.1-3.1,6.2-6.1,9.2-9.1c0.2-0.2,0.5-0.5,0.7-0.7   c-3.1-3.1-6-6.1-9-9.2c8.8-8.5,17.2-16.6,25.8-25c-0.1-0.1-0.1-0.2-0.1-0.2c-0.9-1-0.9-1.2,0-2.1c1.8-1.7,3.6-3.4,5.3-5.1   c0.2-0.2,0.4-0.4,0.7-0.7c-0.2,0-0.3,0-0.4,0c-5.9,1.1-11.8,2.1-17.7,3.2c-1.5,0.3-3,0.5-4.5,0.9c-0.8,0.2-1.4,0.1-1.9-0.6   c-0.3-0.4-0.7-0.7-1.1-1.1c-1.4,1.3-2.8,2.6-4.3,4c0.6,0.5,1.1,0.9,1.6,1.4c-1,1-2,1.8-2.9,2.7c-0.5-0.5-1-0.9-1.5-1.3   c-0.4,0.4-0.8,0.7-1.2,1.1c0.5,0.5,0.9,1,1.3,1.4c0,0.1-0.1,0.1-0.1,0.1c-5.4,5-10.8,10.1-16.2,15.1c-0.1,0.1-0.1,0.1-0.2,0.2v0.1   V44c0.1,0,0.3,0,0.4,0c4-0.4,7.9-0.7,11.9-1.1c0.8-0.1,1.3-0.3,1.9-0.9c3.9-3.7,7.8-7.5,11.8-11.2c0.2-0.2,0.4-0.3,0.5-0.4   c0.5,0.4,0.9,0.8,1.4,1.2c-0.1,0.2-0.2,0.3-0.4,0.4c-4.2,4-8.4,8-12.6,12c-0.3,0.3-0.7,0.4-1.1,0.5c-0.8,0.1-1.6,0.2-2.4,0.2   c-0.7,0-1.3,0.3-1.8,0.8c-6.3,6-12.5,11.9-18.8,17.8c-0.2,0.2-0.4,0.3-0.6,0.5c-0.5-0.5-0.9-1-1.4-1.5c3.1-2.9,6.1-5.8,9.1-8.6   s6-5.6,9.1-8.6c-0.4,0-0.5,0-0.6,0c-2.5,0.2-5.1,0.5-7.6,0.7c-0.9,0.1-1.5,0.4-2.2,1c-9.6,9-19.3,18-28.9,27.1l-2.3,2.1h24.7   L230,74.1z M243.2,73.8c-0.4-0.4-0.8-0.8-1.3-1.4c0.2-0.1,0.5-0.5,0.9-0.8c0.4,0.4,0.9,0.9,1.4,1.4   C243.9,73.3,243.5,73.6,243.2,73.8z M245.6,71.5c-0.4-0.4-0.8-0.9-1.3-1.4c0.2-0.2,0.6-0.7,0.9-0.9c0.4,0.5,1,0.8,1.5,1.4   C246.6,70.7,245.9,71.3,245.6,71.5z M248.1,69.1c-0.4-0.5-1.3-1.4-1.4-1.4c0.3-0.1,0.6-0.6,0.9-0.9c0.5,0.5,1,1,1.5,1.4   C248.9,68.4,248.5,68.7,248.1,69.1z M259.6,31c-0.4-0.5-0.8-1-1.3-1.5c0.9-0.8,1.8-1.7,2.7-2.6c0.5,0.5,0.9,0.9,1.3,1.5   C261.5,29.2,260.6,30,259.6,31z M250.6,66.8c-0.4-0.6-0.9-0.9-1.4-1.5c0.1,0,0.6-0.6,0.9-0.8c0.4,0.4,1,1,1.4,1.4   C251.3,66.1,250.9,66.5,250.6,66.8z M252.9,64.5c-0.4-0.5-0.9-0.9-1.4-1.5c0.2-0.1,0.5-0.6,0.9-0.8c0.3,0.4,0.9,0.9,1.4,1.4   C253.6,63.8,253.2,64.2,252.9,64.5z M256.7,57.9c0.5,0.5,0.9,1,1.4,1.4c-0.3,0.2-0.6,0.6-0.9,0.9c-0.4-0.4-1-0.8-1.5-1.3   C255.9,58.7,256.5,58.1,256.7,57.9z M256,61.5c-0.2,0.2-0.6,0.7-0.9,0.9c-0.5-0.4-0.9-0.9-1.4-1.4c0.2-0.3,0.6-0.7,0.9-1   C255.1,60.5,255.5,61,256,61.5z"></path>
	<path class="st1" d="M261.3,73.9c2.1-2.1,4.2-4.3,6.3-6.4c3.7-3.8,7.5-7.5,11.3-11.3c0.2-0.2,0.4-0.4,0.7-0.7   c0.3,0.7,0.5,1.4,0.7,2.1c-5.6,5.5-11.1,11.1-16.7,16.6l-1.8,1.8h10.6l1.2-1.2c0.8-0.8,1.6-1.5,2.4-2.3c3.8-3.9,7.7-7.9,11.5-11.8   c0.2-0.2,0.3-0.4,0.5-0.6c0.1-0.7,0-0.9-0.1-1.2c-1.1-2.4-2.2-4.8-3.2-7.2c-0.3-0.7-0.3-0.7,0.2-1.3c0.4-0.4,0.9-0.9,1.3-1.3   c-4.5-4.5-9-8.9-13.5-13.4c-5,4.8-10,9.7-15.1,14.6c1.1,1.1,2.1,2.1,3.2,3.1c1,1,2,2,3,3s2.1,2,3,3c-5.1,5.1-10.1,10.1-15.2,15.2   l-1.5,1.4h9L261.3,73.9z"></path>
	<path class="st1" d="M122,151.9l-0.9,0.8c-1,0.9-2,1.8-3,2.7c-0.6-0.6-1.3-1.2-1.9-1.9c-1.3,1.2-2.5,2.3-3.8,3.5   c0.7,0.7,1.3,1.3,2,2c-1.3,1.2-2.6,2.4-3.8,3.6c-0.7-0.7-1.4-1.3-2-2c-1.3,1.2-2.6,2.4-3.9,3.6c0.7,0.7,1.3,1.3,1.9,1.9   c-0.1,0.4-0.1,0.8,0,1.1c0.6,1.7,1.2,3.5,1.8,5.2c0.3,0.9,0.2,1.5-0.5,2.1c-1.7,1.5-3.3,3.1-5,4.6c-9.5,9-19,17.9-28.5,26.9   c-0.6,0.6-1.3,0.8-2.1,0.8c-2.6-0.1-5.3-0.1-7.9-0.2c-0.8,0-1.4,0.2-2,0.8c-16.9,15.8-33.8,31.5-50.7,47.3c-1.5,1.4-3,2.8-4.5,4.1   c-2.4,2.2-4.7,4.4-7.1,6.5c0,0,0,0.1-0.1,0.2c0.3-0.1,0.5-0.1,0.7-0.2c5-1.6,10-3.2,15-4.8c5.9-1.9,11.8-3.8,17.7-5.6   c3.8-1.2,7.7-2.5,11.5-3.7c0.7-0.2,1.4-0.5,2-1.1c5.5-5.4,11.1-10.7,16.7-16.1c13.4-12.9,26.8-25.8,40.1-38.7   c9.9-9.5,19.8-19,29.7-28.5c4.8-4.6,9.6-9.2,14.5-13.8l-0.1-0.1l1.4-1.4h-27.6L122,151.9z M47.9,236.2c-1.6,0-2.8-1.2-2.8-2.6   s1.3-2.6,2.8-2.6s2.8,1.2,2.8,2.6S49.4,236.2,47.9,236.2z M59.8,225c-1.6,0-2.8-1.2-2.8-2.6c0-1.4,1.3-2.6,2.8-2.6   c1.6,0,2.8,1.2,2.8,2.6S61.3,225,59.8,225z"></path>
	<path class="st1" d="M297.4,73.9c3.6-3.8,7.3-7.7,10.9-11.5c1.9-2,3.8-4.1,5.8-6.1c0.3-0.4,0.4-0.7,0.3-1.2   c-0.3-1.1-0.5-2.1-0.7-3.2c-0.4-1.9-0.4-1.9,0.9-3.3c5.3-5.5,10.6-11,15.8-16.5c0.9-0.9,1.7-1.6,3-1c0.2,0.1,0.5,0.1,0.7,0.1   c3.3,0.6,6.6,1.2,9.9,1.8c0.9,0.2,1.4,0.1,2-0.6c1.2-1.4,2.5-2.7,3.7-4c6.1-6.6,12.2-13.1,18.3-19.7c2.4-2.6,4.9-5.2,7.3-7.8   c0.3-0.3,0.5-0.5,0.8-0.9c-0.3,0.1-0.5,0.1-0.6,0.1c-2.4,0.4-4.8,0.9-7.2,1.3c-5,0.9-10,1.8-15,2.7c-0.6,0.1-1.1,0.3-1.5,0.8   c-0.8,0.9-1.8,1.6-2.5,2.6c-1,1.3-2.4,1.2-3.8,1.3c1.1-1.2,2.2-2.4,3.5-3.8c-0.5,0.1-0.8,0.1-1,0.1c-1.4,0.3-2.8,0.6-4.2,0.8   c-0.8,0.2-1.3,0.5-1.8,1c-6.3,6.4-12.5,12.8-18.7,19.2c-0.6,0.7-1.2,1-2.1,1c-3.3,0.1-6.6,0.2-9.9,0.2c-0.7,0-1.1,0.2-1.6,0.7   c-3.1,3.1-6.1,6.2-9.2,9.3c-4.2,4.3-8.5,8.5-12.7,12.8c-0.3,0.4-1.5,1.6-1.9,2c1,2.3,2.1,4.3,3.1,6.6c0.3-0.3,1.1-1.1,1.3-1.3   c3.8-4,7.7-7.9,11.5-11.8c3.8-3.8,7.5-7.6,11.2-11.4c0.2-0.2,0.5-0.5,0.7-0.5c0.8-0.1,1.6-0.1,2.4-0.1c0,0.1,0.1,0.1,0.1,0.2   C303,47.4,289.7,61,276.5,74.6l-1.4,1.4h20.3L297.4,73.9z M347.4,16.2c1.1,1,2,2,3.1,3.1c-0.6,0.6-1.3,1.3-1.9,2c-1-1-2-2-3.1-3.1   C346.1,17.6,346.8,16.9,347.4,16.2z M343,20.9c1.1,1,2,2,3.1,3.1c-0.6,0.6-1.3,1.3-1.9,2c-1-1-2-2-3.1-3.1   C341.7,22.3,342.4,21.5,343,20.9z"></path>
	<path class="st1" d="M122.1,208.9c3-3,6.1-6,9.1-9.1c0.5-0.6,1-0.8,1.7-0.7c0.9,0.1,1.8,0,2.6,0.1c0.7,0.1,1.1-0.1,1.6-0.6   c6.7-6.7,13.4-13.5,20.1-20.2c0.1-0.2,0.3-0.4,0.6-0.7c-0.4,0.1-0.7,0.1-1,0.2c-8.2,2.4-16.4,4.8-24.6,7.2   c-6.5,1.9-12.9,3.8-19.3,5.7c-0.6,0.2-1.1,0.5-1.5,0.9c-1.5,1.4-3,2.9-4.5,4.3c-17.8,17.2-35.5,34.3-53.3,51.5   c-0.4,0.4-0.8,0.9-1.3,1.4c0.4-0.1,0.8-0.2,1.2-0.3c7.6-2.5,15.1-4.9,22.6-7.3c8.6-2.7,17.3-5.5,25.9-8.3c0.3-0.1,0.5-0.2,0.7-0.4   c1.1-1.1,2.1-2.1,3.1-3.1c0.3-0.3,0.5-0.6,0.4-1c-0.1-0.7-0.2-1.5-0.3-2.3c-0.1-0.7,0.1-1.2,0.6-1.7   C111.7,219.3,116.9,214.1,122.1,208.9z M119.5,200.3c0.9-1.3,2.1-1.8,3.7-1.5c1,0.1,2.1,0.1,3.1,0.1c0,0.1,0.1,0.1,0.1,0.2   c-0.7,0.7-1.4,1.4-2.1,2.1c-0.1,0.1-0.3,0.1-0.5,0.1c-1.6,0-3.2,0-4.9-0.1C118.9,200.8,119.3,200.6,119.5,200.3z M113.7,206   c0.9-1.2,2-1.6,3.5-1.4c1.1,0.1,2.2,0.1,3.5,0.1c-1,1-1.8,1.8-2.6,2.7c-0.1,0.1-0.3,0.2-0.5,0.2c-1.7-0.1-3.4-0.1-5.3-0.2   C112.9,206.9,113.3,206.5,113.7,206z M108,211.6c0.2-0.2,0.5-0.4,0.8-0.4c1.6,0,3.3,0.1,4.9,0.1c0,0,0.1,0.1,0.2,0.2   c-0.9,0.8-1.7,1.7-2.6,2.5c-0.1,0.1-0.3,0.2-0.4,0.2c-1.7-0.1-3.4-0.1-5.3-0.2C106.5,213.1,107.2,212.3,108,211.6z M105,220.3   c-0.1,0.1-0.3,0.2-0.5,0.2c-1.6,0-3.2-0.1-4.8-0.1c-0.1,0-0.2-0.1-0.4-0.2c0.9-0.9,1.7-1.8,2.6-2.6c0.1-0.1,0.4-0.2,0.6-0.2   c1.7,0,3.3,0,5,0c0,0.1,0.1,0.2,0.1,0.3C106.7,218.6,105.8,219.5,105,220.3z"></path>
	<path class="st1" d="M211.6,153.7c0,0,0.2,5.6,0.3,8c0.1,0.8-0.2,1.4-0.8,1.9c-3.6,3.8-7.3,7.7-10.9,11.5   c-4.1,4.3-8.2,8.6-12.3,12.9c-0.4,0.4-0.6,0.9-0.5,1.5c0.1,1,0.2,2,0.3,3c0.2,2.2,0.4,4.4,0.6,6.9c0.3-0.3,0.5-0.5,0.7-0.7   c2.7-2.9,5.4-5.8,8.1-8.7c0.5-0.6,1.1-0.9,1.9-1c1.9-0.1,1.9-0.1,3.2-1.5c6.1-6.6,12.2-13.3,18.4-19.9c4.5-4.9,9.1-9.8,13.6-14.6   c0.2-0.2,0.4-0.5,0.7-0.8l0.6-0.7h-21.9L211.6,153.7z"></path>
	<path class="st1" d="M309.4,74.7c0.2,0,0.3-0.1,0.6-0.2c-0.6-0.6-1.1-1.1-1.7-1.7c0.8-0.9,1.6-1.8,2.5-2.6c0.6,0.6,1.1,1.1,1.7,1.6   c0.9-0.9,1.6-1.8,2.4-2.6c-0.6-0.6-1.1-1.1-1.6-1.7c0.4-0.4,0.7-0.7,1-1.1c0.5,0.5,1.1,1,1.6,1.5c0.2-0.2,0.4-0.3,0.6-0.5   c2-2.1,3.9-4.2,5.9-6.2c0.3-0.3,0.4-0.6,0.3-1.1c-0.2-1.6-0.4-3.2-0.7-4.8c-0.1-0.8,0-1.3,0.6-1.8c5.8-6.1,11.6-12.3,17.3-18.4   c0.3-0.3,0.5-0.6,0.9-0.9c-0.4-0.1-0.6-0.2-0.9-0.2c-2-0.4-4.1-0.7-6.1-1.1c-0.8-0.2-1.3,0-1.8,0.6c-5.4,5.7-10.8,11.4-16.2,17.1   c-0.4,0.4-0.4,0.7-0.3,1.2c0.3,1.4,0.6,2.8,0.9,4.1c0.1,0.5,0,0.9-0.4,1.3c-1.8,1.9-3.5,3.7-5.2,5.6c-3.5,3.8-7.1,7.5-10.6,11.3   c-0.2,0.2-0.3,0.4-0.5,0.6l-1.3,1.3h9.7L309.4,74.7z"></path>
	<path class="st1" d="M302.5,32.8c7.7-7.7,15.3-15.4,23.1-23.3c-0.5,0.1-0.7,0.1-0.9,0.1c-3.8,0.7-7.5,1.4-11.3,2.1   c-6.2,1.2-12.5,2.3-18.8,3.5c-0.4,0.1-0.8,0.3-1.1,0.6c-1.2,1.2-2.4,2.3-3.6,3.5c-0.2,0.2-0.3,0.4-0.4,0.5   C293.8,24.2,298.1,28.5,302.5,32.8z"></path>
	<path class="st1" d="M286.7,47c4.6-4.5,9.2-9.2,13.7-13.7c-4-4-7.8-7.8-11.7-11.7c-4.6,4.5-9.3,9-13.9,13.5   C278.8,39.1,282.7,43,286.7,47z"></path>
	<path class="st1" d="M312.7,25.4c2.8,0,5.4,0,8.1,0c0.7,0,1.1-0.2,1.5-0.6c5.5-5.7,11.1-11.3,16.6-17c0.2-0.2,0.4-0.5,0.8-0.9   c-0.5,0.1-0.8,0.1-0.9,0c-3,0.6-6,1.2-9,1.7c-0.6,0.1-0.9,0.3-1.3,0.7c-5.2,5.2-10.3,10.3-15.4,15.5C313,25,312.9,25.2,312.7,25.4z   "></path>
	<path class="st1" d="M71.7,205.1c0.8,0.1,1.3-0.2,1.9-0.7c10.2-9.6,20.4-19.2,30.6-28.8c0.8-0.8,1.6-1.6,2.5-2.4   c-0.3-0.8-0.6-1.6-0.9-2.5c-12.2,11.5-24.4,22.8-36.5,34.2c0,0.1,0.1,0.2,0.1,0.2C70.2,205.1,71,205,71.7,205.1z"></path>
	<path class="st2" d="M240.8,76.1C240.8,76.1,240.9,76.1,240.8,76.1L240.8,76.1L240.8,76.1z"></path>
</g>
<g>
	<path class="st1" d="M17.2,91.3c1,0,2-0.1,3-0.1c3,0,5.9,0,8.9,0c0.1,0,0.3,0,0.4,0c0,0.7,0,1.4,0,2.1c0.6,0,1.2,0,1.8,0   c0-0.7,0-1.4,0-2.1c2.2,0,4.4,0,6.6,0c0-2.6,0-5.2,0-7.9c5.8-0.2,11.6-0.2,17.4-0.1c0,1.5,0,3,0,4.5c-0.4,0.1-0.8,0.1-1.2,0.2   c0,0.7,0,1.4,0,2c0.4,0.1,0.8,0.1,1.2,0.2c0,1.4,0,2.9,0,4.3c-0.4,0.1-0.8,0.1-1.2,0.2c0,0.7,0,1.3,0,2c0.4,0.1,0.8,0.1,1.2,0.2   c0,0.8,0,1.6,0,2.5c0.4,0,0.8,0.1,1.2,0.1c1.5,0,3,0,4.5,0c0.9,0,1.5,0.3,2.1,0.9c0.7,0.8,1.4,1.5,2.1,2.2c0.3,0.4,0.8,0.6,1.3,0.6   c4.1,0,8.2,0,12.2,0c0.1,0,0.1,0,0.2-0.1c0-6.6,0-13.1,0-19.8c7.7,0,15.3,0,23.1,0c-0.2,0.3-0.3,0.6-0.5,0.9   c-2.5,4.1-5,8.1-7.6,12.1c-0.7,1-0.8,2.1-0.7,3.2c0,0.3,0.1,0.6,0.1,1c0.5-0.8,1-1.5,1.5-2.4c0.3,0.9,0.2,1.8,0.2,2.6   c-0.1,1.2-0.5,2.1-1.3,3c-0.4,0.4-0.5,0.9-0.5,1.5c0,0.7,0,1.3,0,2c0,0.2,0,0.3,0.1,0.4c0.1,0,0.1,0,0.1,0.1c0.5-0.8,1-1.5,1.5-2.4   c0.1,0.2,0.1,0.3,0.1,0.3c0,1,0.1,2-0.1,2.9c-0.1,0.4-0.3,0.8-0.5,1.1c-0.9,1.1-1.3,2.4-1.3,3.7c0,0.4,0,0.9,0,1.4   c0.1,0,0.1,0.1,0.2,0.1c0.5-0.8,1-1.5,1.4-2.2c0.1,0,0.1,0.1,0.1,0.1c0,20.2,0,40.3,0,60.6c-0.3-0.4-0.4-0.7-0.7-0.9   c-1.7-2.8-3.5-5.7-5.1-8.5c-0.4-0.7-0.9-0.9-1.6-0.9c-1.4,0.1-2.8,0-4.3,0.1c-0.7,0-1.2-0.3-1.6-0.9c-3.8-6.3-7.6-12.5-11.3-18.8   c-0.3-0.5-0.5-1.2-1-1.5c-0.4-0.3-1.2-0.1-1.8-0.1c-4.3,0-8.7,0-12.9,0c-0.8,0-1.3-0.3-1.7-0.9c-1.4-2.5-2.9-4.9-4.4-7.3   c-0.2-0.3-0.3-0.6-0.5-0.9c0.4,0,0.8-0.1,1.2-0.1c5.9,0,11.8,0,17.7-0.1c0.8,0,1.3,0.3,1.8,1c1.4,2.4,2.8,4.8,4.3,7.2   c0.2,0.3,0.3,0.6,0.5,1c-0.6,0.1-1.2,0.1-1.7,0.2c0.1,0.1,0.1,0.2,0.2,0.3c3.7,6.1,7.3,12.2,11,18.3c0.3,0.4,0.5,0.6,1,0.6   c1-0.1,2.1,0,3.2,0c-0.1-0.2-0.1-0.4-0.2-0.5c-5.6-9.3-11.2-18.5-16.8-27.8c-0.2-0.4-0.5-0.8-0.7-1.2c-0.3-0.6-0.8-0.8-1.5-0.8   c-6.9,0-13.8,0-20.6,0c-0.4,0-0.7-0.1-0.8-0.5c-2-3.4-4.1-6.8-6.1-10.2c-0.4-0.7-0.9-1-1.8-1c-2.4,0.1-4.7,0-7,0   c-0.1,0-0.2,0-0.3-0.1c0-2.6,0-5.3,0-7.9c2.2,0,4.3,0,6.6,0c0-2.6,0-5.2,0-7.8c8.4,0,16.7,0,25,0c0.1-0.1,0.1-0.1,0.1-0.2   c-0.5-0.5-0.9-1.1-1.5-1.5c-0.2-0.2-0.7-0.2-1-0.2c-9.5,0-19,0-28.5-0.1c-0.2,0-0.3,0-0.6,0c0-0.9,0-1.6,0-2.5c-0.6,0-1.2,0-1.9,0   c0,0.8,0,1.6,0,2.5c-0.2,0-0.4,0-0.6,0c-3.8,0-7.7,0-11.6,0.1c-0.1,0-0.1,0-0.2-0.1C17.2,98,17.2,94.7,17.2,91.3z M78.9,128.8   c0-8,0-15.8,0-23.7c-8.3,0-16.5,0-24.9,0c-0.1,0.9,0,1.8,0.5,2.6c3.2,5.2,6.5,10.5,9.7,15.7c0.2,0.3,0.4,0.4,0.8,0.4   c2.8,0,5.6,0,8.4,0c0.2,0,0.3,0,0.5,0c0.1-0.5,0.1-1,0.2-1.5c0.7,0,1.3,0,1.9,0c0,0.4,0,0.8,0,1.2c-0.1,0.7,0.1,1.3,0.5,1.9   c0.7,1,1.3,1.9,1.9,2.9C78.5,128.5,78.7,128.6,78.9,128.8z M88.6,153.4c0-16.2,0-32.2,0-48.3c-0.9,1-1.6,2.2-2.3,3.2   c-0.6,0.8-0.8,1.8-0.8,2.7c0,7.4,0,14.8,0,22.2c0,4.3,0,8.7,0,13c0,1.4,0.3,2.7,1.2,3.9c0.5,0.8,1,1.6,1.5,2.5   C88.3,152.9,88.4,153.1,88.6,153.4z M89.3,89.1c0-1.3-1-2.2-2.2-2.2c-1.3,0-2.2,1-2.2,2.2c0,1.3,1,2.3,2.2,2.3S89.3,90.4,89.3,89.1   z"></path>
	<path class="st1" d="M425.8,100.8c-4,0-7.9,0-12,0c-0.1-0.7-0.1-1.4-0.1-2c-0.5,0-1.2,0-1.8,0c0,0.5,0,1,0,1.5   c0,0.4-0.1,0.6-0.5,0.5c-1.1-0.2-1.6,0.4-2.1,1.3c-1.6,2.7-3.2,5.4-4.9,8c-0.1,0.2-0.2,0.3-0.3,0.5c2.6,0,5.1,0,7.7,0   c0,3,0,5.9,0,8.9c-0.3,0-0.5,0.1-0.8,0.1c-3.7,0-7.4,0-11.2,0c-0.9,0-1.4,0.3-1.8,1c-0.6,1-1.3,2.1-1.9,3.1   c-0.2,0.3-0.4,0.4-0.8,0.4c-0.3-0.1-0.7,0-1,0c3.7,5.9,7.2,11.7,10.9,17.5c-0.2,0-0.4,0.1-0.5,0.1c-8.1,0-16,0-24.1,0   c-0.4,0-0.6-0.1-0.6-0.5c0-0.6,0-1.2,0.1-1.8c0.1-0.2,0.4-0.4,0.7-0.5c0.4-0.1,0.8-0.1,1.3-0.2c-0.1-0.3-0.2-0.5-0.4-0.7   c-2.7-4.4-5.4-8.8-8.1-13.2c-0.3-0.5-0.7-0.8-1.2-0.8c-3.3,0-6.6,0-10,0.1c-0.1,0-0.2,0-0.4,0.1c-0.1,0.8-0.1,1.6,0.4,2.2   c0.3,0.5,0.3,0.9,0.1,1.5c-0.8,1.3-0.8,2.6,0,3.9c0.3,0.5,0.3,0.9,0,1.4c-0.8,1.3-0.8,2.7,0,4c0.3,0.5,0.2,0.9-0.1,1.4   s-0.4,1.1-0.5,1.6c-0.1,1.6,1.1,2.5,2.8,2.2c0.2-0.1,0.3-0.1,0.7-0.1c-6.1,10.4-12.3,20.5-18.7,30.6c0-19.1,0-38.3,0-57.5   c0.5,0,1-0.1,1.6-0.1c9.9,0,19.7,0,29.5,0.1c1.3,0,2.1-0.4,2.7-1.5c2.5-4.1,5-8,7.6-12c0.2-0.3,0.3-0.5,0.5-0.9c-0.3,0-0.4,0-0.6,0   c-11.7,0-23.3,0-34.9,0c-0.8,0-1.4-0.3-1.8-1c-2.2-3.6-4.4-7.2-6.7-10.7c-0.3-0.5-0.5-1.1-0.5-1.8c0-1.3,0-2.6,0-4c3,0,5.9,0,9,0   c0,0.7,0.1,1.3,0,2c-0.1,0.9,0.2,1.8,0.7,2.6c0.4,0.5,0.8,1.1,1.1,1.7c0.3,0.5,0.7,0.7,1.3,0.7c4.3,0,8.5,0,12.8,0   c10.4,0,20.9,0,31.3,0c0.2,0,0.4,0,0.7,0c0-0.2,0-0.4,0-0.5c0-2,0-3.9,0-5.9c0-0.4,0.1-0.5,0.5-0.5c1.4,0,2.7,0,4.1,0   c0,2.2,0,4.5,0,6.8c2.1,0,4.2,0,6.3,0c0,1.2,0,2.2,0,3.3c0.7,0,1.3,0,1.9,0c0-0.5,0-1,0-1.5c0-0.7,0-0.7,0.8-0.7c1.4,0,2.8,0,4.2,0   c2.2,0,4.4,0,6.7,0c0.2,0,0.3,0.1,0.4,0.1C425.8,94.5,425.8,97.7,425.8,100.8z M357.5,126.8c0-1.3-1-2.2-2.2-2.2s-2.2,1-2.2,2.2   c0,1.3,1,2.3,2.3,2.3C356.5,129.1,357.5,128.1,357.5,126.8z M357.5,132.9c0-1.3-1-2.2-2.2-2.2s-2.2,1-2.2,2.2c0,1.3,1,2.3,2.3,2.3   C356.5,135.1,357.5,134.1,357.5,132.9z"></path>
	<path class="st1" d="M175.7,81c0,6.6,0,13.3,0,19.9c0,0.7,0.3,1.2,0.9,1.5c1.3,0.8,2.6,1.8,4,2.6c0.5,0.3,0.8,0.8,0.8,1.5   c-0.1,1.8,0,3.5,0,5.3c0.4,0.1,0.9,0.1,1.4,0.2c0,0.5,0,1.1,0,1.6c0,0.1-0.2,0.2-0.3,0.2c-0.3,0.1-0.7,0.1-1,0.1   c-0.1,1.6-0.1,3.2,0.9,4.7c2.7,4.3,5.3,8.7,7.9,13c0.4,0.6,0.8,0.9,1.5,0.9c4.8-0.1,9.5,0,14.2-0.1c0.9,0,1.5,0.3,2,1.1   c1.4,2.4,3,4.8,4.4,7.1c0.2,0.3,0.3,0.6,0.5,1c-0.4,0.1-0.8,0.1-1.1,0.1c-12,0-24.1,0-36.1,0c-0.7,0-1.2-0.3-1.6-0.9   c-1.6-2.7-3.3-5.5-4.9-8.2c-0.4-0.6-0.5-1.3-0.5-1.9c0-2.9,0-5.8,0.1-8.8c0-1-0.2-2-0.8-2.9c-0.8-1.2-1.5-2.4-2.2-3.7   c-0.2-0.4-0.4-0.9-0.4-1.4c0-8.9,0-17.8,0-26.7c0-0.7,0-1.4,0-2.2c1.2,0,2.3,0,3.5,0c0-1.4,0-2.7,0-4.1C171,81,173.4,81,175.7,81z    M166.9,87.5c0,0.2,0,0.4,0,0.5c0,11,0,11.6,0,22.5c0,0.4,0.1,0.8,0.1,1.2c0.3,1,0.9,1.9,1.5,2.8c0.1,0,0.1-0.1,0.2-0.1   c0-12.4,0-14.5,0-26.9C168.1,87.5,167.6,87.5,166.9,87.5z"></path>
	<path class="st1" d="M212.9,83.4c8.2-0.2,16.2-0.2,24.2-0.1c0,0.2,0,0.4,0,0.5c0,4.4,0,8.7,0,13.1c0,0.3-0.1,0.5-0.4,0.6   c-0.8,0.2-0.9,0.4-0.9,1.2c0,1.9,0,3.8,0,5.7c0,0.2,0,0.3,0,0.5c-2.4,0-4.7,0-7.1,0c0-6.1,0-12.1,0-18.2c-0.6,0-1.2,0-1.8,0   c0,6.7,0,13.4,0,20.2c0.2,0,0.4,0.1,0.6,0.1c4.7,0,9.4,0,14-0.1c0.9,0,1.5,0.3,1.9,1.1c1.2,2,2.5,3.9,3.7,5.9   c0.2,0.3,0.4,0.5,0.9,0.5c6.7,0,13.5,0,20.3,0c0.4,0,0.7,0.1,0.9,0.5c3.4,5.4,6.8,10.8,10.2,16.2c2,3.3,4,6.6,6,10   c0.1,0.2,0.2,0.4,0.3,0.6c-7.9,0-15.8,0-23.7,0c0-0.9-0.1-1.8,0-2.6c0.1-0.9-0.2-1.6-0.7-2.4c-2.2-3.5-4.4-7-6.5-10.5   c-0.3-0.4-0.5-0.9-0.8-1.3s-0.7-0.7-1.2-0.7c-5,0-10.1,0-15.2,0c-0.1,0-0.2,0.1-0.4,0.1c0,0.2,0,0.3,0,0.5c0,4.7,0,9.3,0,14   c0,0.4,0.1,0.7,0.5,0.7c0.4,0.1,0.7,0.3,0.6,0.8c-0.1,0.5,0,1,0,1.6c-6.2,0-12.4,0-18.6,0c0-0.7-0.1-1.3,0-1.9   c0.1-0.4,0.5-0.4,0.8-0.4c0.4,0,0.5-0.2,0.5-0.6c0-5.3,0-10.7,0-16c0-0.2,0-0.4,0-0.6c10.4,0,20.7,0,31,0c-0.3-1.1-0.7-1.4-1.8-1.4   c-9,0-18,0-27,0c-2.8,0-5.5,0-8.3,0c-0.8,0-1.4-0.3-1.8-1c-2-3.3-4.1-6.5-6-9.7c-0.7-1-0.9-1.2-2.5-0.9c2.2,3.6,4.5,7.2,6.8,10.9   c-0.8,0-1.4,0-2,0c-0.1,0-0.3-0.1-0.3-0.2c-2.6-4.1-5.1-8.2-7.7-12.3c-0.1-0.1-0.1-0.1-0.1-0.3c0.3-0.1,0.5-0.1,0.7-0.1   c5.8,0,11.5,0,17.3,0c0.4,0,0.9,0,1.4,0c0.3,0,0.4-0.1,0.4-0.4c0-2.7,0-5.4,0.1-8.1c0.1-1.3-0.4-2.3-1-3.3c-2.2-3.5-4.3-7-6.5-10.5   C213.3,84.3,213.1,83.9,212.9,83.4z M270.7,139.1c-0.4-0.7-0.8-1.4-1.2-2c-3.9-6.3-7.8-12.7-11.7-19c-0.7-1.1-1.3-1.3-2.5-0.8   c0.2,0.3,0.3,0.7,0.5,1c4.2,6.7,8.3,13.5,12.4,20.2c0.2,0.2,0.5,0.4,0.8,0.5C269.5,139.2,270.1,139.1,270.7,139.1z M262.7,117.4   c0.2,0.3,0.4,0.7,0.6,1c4,6.6,8.1,13.1,12,19.7c0.7,1,1.2,1.2,2.5,0.8c-0.3-0.5-0.6-1.2-0.9-1.6c-2.7-4.4-5.4-8.9-8.2-13.3   c-1.2-1.9-2.3-3.8-3.5-5.7C264.7,117.2,263.7,117,262.7,117.4z"></path>
	<path class="st1" d="M283,92c0-3,0-5.8,0-8.8c0.3,0,0.7,0,1,0c14.4,0,28.8,0,43.1,0c0.8,0,1.7,0,2.5,0c0.8-0.1,1.3,0.3,1.6,0.9   c1.4,2.3,2.7,4.6,4.1,6.9c1.3,2.2,2.6,4.4,3.9,6.6c0.4,0.7,0.6,1.4,0.6,2.2c0,10.2,0,20.4,0,30.6c0,0.2,0,0.4,0,0.6   c-0.2,0-0.4,0-0.5,0c-9.5,0-19.1,0-28.6,0c-0.7,0-1.2-0.2-1.5-0.8c-1.2-1.9-2.4-3.8-3.5-5.8c-0.1-0.1-0.1-0.2-0.2-0.4   c6.1,0,12.2,0,18.3,0c-0.6-1-1.2-2-1.8-3c0.7-0.1,1.2-0.1,1.8-0.1c0-0.9,0-1.7,0-2.6c-0.8,0-1.5-0.1-2.2,0c-1,0.1-1.4-0.1-1.9-0.9   c-0.3-0.5-0.7-1.1-1-1.8c1.8,0,3.4,0,5.1,0c0-0.9,0-1.8,0-2.6c-0.2,0-0.3,0-0.5,0c-1.9,0-3.9,0-5.8,0c-0.3,0-0.5-0.1-0.6-0.3   c-0.4-0.8-0.9-1.5-1.5-2.4c2.9-0.1,5.6,0,8.5,0c0-0.9,0-1.7,0-2.6c-0.2,0-0.3-0.1-0.5-0.1c-2.7,0-5.5,0-8.2,0.1   c-0.9,0-1.6-0.3-2-1.2c-0.3-0.6-0.7-1.2-1.1-1.9c3.3-0.1,6.5,0,9.8-0.1c-0.2-0.3-0.3-0.5-0.4-0.8c-2.2-3.7-4.5-7.3-6.7-11   c-0.4-0.7-0.9-0.9-1.6-0.9c-9.8,0-19.7,0-29.5,0C283.5,92,283.3,92,283,92z"></path>
	<path class="st1" d="M130.9,104.7c-0.3,1-0.8,1.6-1.2,2.4c-0.3,0.6-0.8,0.8-1.4,0.7c-2.8-0.1-5.6,0-8.4,0c-0.2,0-0.3,0-0.5,0   c0,0.9,0,1.7,0,2.6c2.8,0,5.6,0,8.4,0c-0.6,0.9-1.1,1.8-1.6,2.6c-0.1,0.1-0.3,0.2-0.5,0.2c-1.9,0-3.8,0-5.7,0c-0.2,0-0.3,0-0.5,0   c-0.2,0.9-0.2,1.8,0,2.6c1.7,0,3.3,0,5.1,0c-0.4,0.6-0.8,1.2-1,1.7c-0.4,0.8-1,1.1-1.9,1c-0.8-0.1-1.5,0-2.2,0c0,0.9,0,1.7,0,2.6   c0.5,0.1,1.1,0.1,1.8,0.1c-0.1,0.2-0.1,0.3-0.2,0.4c-0.4,0.7-0.8,1.3-1.2,2c-0.1,0.2-0.1,0.3-0.2,0.5c0.2,0.1,0.4,0.1,0.5,0.1   c0.3,0,0.6,0,0.9,0c5.3,0,10.7,0,16,0c0.2,0,0.4,0,0.7,0.1c-0.2,0.3-0.3,0.5-0.4,0.8c-1.1,1.8-2.2,3.6-3.3,5.3   c-0.3,0.5-0.7,0.8-1.3,0.8c-9.6,0-19.3,0-28.9,0c-0.1,0-0.2,0-0.4,0c0-0.3-0.1-0.7-0.1-1c0-5.4,0-10.7,0-16c0-4.8,0-9.5,0-14.3   c0-0.7,0.2-1.3,0.5-1.9c2.7-4.5,5.4-9,8.1-13.5c0.4-0.8,1-1.1,1.9-1.1c15.3,0,30.6,0,45.9,0c0.2,0,0.3,0,0.5,0c0,2.9,0,5.8,0,8.8   c-0.2,0-0.3,0-0.5,0c-9.9,0-19.7,0-29.5,0c-0.9,0-1.4,0.3-1.8,1c-2.2,3.7-4.5,7.4-6.8,11.1c-0.1,0.2-0.2,0.3-0.3,0.5   C124.5,104.7,127.6,104.7,130.9,104.7z"></path>
	<path class="st1" d="M317.5,100.8c-0.3,0-0.5,0-0.7,0c-5.7,0-11.4,0-17.1,0c-0.7,0-0.7,0-0.7,0.7c0,4.9,0,9.9,0,14.8   c0,0.5,0.2,1.1,0.4,1.5c2.9,4.8,5.9,9.5,8.8,14.4c0.4,0.6,0.8,0.8,1.5,0.8c9.8,0,19.6,0,29.4,0c0.2,0,0.4,0,0.7,0   c0,2.9,0,5.8,0,8.8c-0.4,0-0.9,0-1.3,0c-10.5,0-20.9,0-31.3,0c-4.5,0-9.1,0-13.7,0c-0.9,0-1.4-0.3-1.9-1.1   c-2.7-4.5-5.4-9.1-8.2-13.6c-0.4-0.6-0.5-1.3-0.5-2c0-10,0-20,0.1-30c0-0.4,0-0.7,0-1.2c0.3,0,0.6,0,0.8,0c8,0,16,0,24,0   c1.4,0,2.8,0,4.3,0c0.8,0,1.3,0.3,1.6,0.9c1.1,1.8,2.2,3.6,3.3,5.4C317.2,100.4,317.3,100.5,317.5,100.8z M303.2,138   c-1.4,0-2.7,0-4.1,0c0,0.6,0,1.2,0,1.6c1.4,0,2.7,0,4.1,0C303.2,139.1,303.2,138.6,303.2,138z M304.5,139.7c0.9,0,1.8,0.1,2.7,0.1   c1.8-0.1,1.4,0.1,1.4-1.6c0,0,0-0.1-0.1-0.1c-1.3,0-2.7,0-4.1,0C304.5,138.6,304.5,139.1,304.5,139.7z M321,138.1c0,0.5,0,1,0,1.5   c1.3,0,2.6,0,4,0c0-0.5,0-1,0-1.5C323.7,138.1,322.3,138.1,321,138.1z M310.1,139.6c1.4,0,2.7,0,3.9,0c0-0.5,0-1,0-1.5   c-0.7,0-1.3,0-2,0s-1.3,0-2,0C310.1,138.6,310.1,139.1,310.1,139.6z M315.5,139.6c0.2,0.1,0.4,0.1,0.7,0.1c0.7,0,1.3,0.1,2,0.1   c1.8-0.1,1.4,0.1,1.5-1.5c0-0.1-0.1-0.1-0.1-0.1c-1.3,0-2.7,0-4,0C315.5,138.6,315.5,139.1,315.5,139.6z"></path>
	<path class="st1" d="M103.3,141.6c0-3,0-5.8,0-8.8c0.2,0,0.4,0,0.6,0c9.7,0,19.5,0,29.2,0c0.9,0,1.5-0.3,2-1.1   c2.8-4.7,5.6-9.3,8.5-13.9c0.4-0.6,0.5-1.3,0.5-2c0-4.9,0-9.7,0-14.6c0-0.2,0-0.3,0-0.5c-6.1,0-12.2,0-18.4,0   c0.2-0.4,0.3-0.7,0.5-0.9c1-1.8,2.1-3.5,3.2-5.2c0.3-0.5,0.8-0.8,1.4-0.8c9.6,0,19.1,0,28.7,0c0.2,0,0.3,0,0.6,0c0,0.4,0,0.9,0,1.3   c0,8.5,0,16.9,0,25.4c0,1.6,0,3.3,0,5c0,0.4-0.2,0.8-0.4,1.2c-2.8,4.8-5.7,9.5-8.5,14.2c-0.3,0.4-0.7,0.7-1.2,0.7   c-0.2,0-0.4,0-0.5,0c-15,0-30.1,0-45.1,0C104.1,141.7,103.7,141.7,103.3,141.6z M123.7,138c0,0.5,0,1.1,0,1.6c1.4,0,2.7,0,4,0   c0-0.5,0-1,0-1.6C126.4,138,125.1,138,123.7,138z M140.1,138.1c0,0.5,0,1,0,1.5c1.4,0,2.7,0,4.1,0c0-0.5,0-1,0-1.5   C142.7,138.1,141.4,138.1,140.1,138.1z M134.5,139.6c1.4,0,2.7,0,4,0c0-0.5,0-1,0-1.5c-1.4,0-2.7,0-4,0   C134.5,138.6,134.5,139.1,134.5,139.6z M122.2,138.1c-1.3,0-2.6,0-3.9,0c0,0.5,0,1,0,1.5c1.3,0,2.6,0,3.9,0   C122.2,139.1,122.2,138.6,122.2,138.1z M129.2,139.7c1.4,0,2.6,0,3.9,0c0-0.5,0-1,0-1.6c-1.3,0-2.6,0-3.9,0   C129.2,138.6,129.2,139.1,129.2,139.7z"></path>
	<path class="st1" d="M245.1,107c1.3,0,2.4-0.1,3.5,0c0.9,0.1,1.4-0.3,1.8-1c3.6-5.9,7.2-11.7,10.8-17.5c0.5-0.8,0.8-1.7,0.8-2.7   c0-0.4-0.1-0.5-0.5-0.5c-0.5,0.1-1,0-1.6,0c0-0.7,0-1.3,0-2c6.1,0,12.1,0,18.2,0c0,0.2,0,0.4,0,0.5c0,3.6,0,7.2,0,10.7   c0,0.8-0.2,1.4-0.6,2c-3,4.9-6,9.7-9,14.7c-0.5,0.9-1.2,1.2-2.1,1.2c-5.7-0.1-11.4,0-17,0c-0.5,0-0.9-0.2-1.2-0.7   c-0.8-1.4-1.7-2.7-2.6-4.2C245.3,107.5,245.2,107.3,245.1,107z"></path>
	<path class="st1" d="M343.8,113.4c0-2.1,0-4.2,0-6.3c12.9,0,25.9,0,38.9,0c-0.2,0.3-0.3,0.5-0.4,0.7c-0.9,1.5-1.9,3-2.8,4.5   c-0.4,0.8-1,1-1.9,1c-8.4-0.1-16.8-0.1-25.2-0.1c-2.6,0-5.3,0-7.9,0.1C344.2,113.4,344,113.4,343.8,113.4z"></path>
	<path class="st1" d="M361,88.3c0-1.6,0-3.1,0-4.7c12.7,0,25.4,0,38.2,0c0,1.5,0,3.1,0,4.7C386.4,88.4,373.7,88.5,361,88.3z"></path>
	<path class="st1" d="M187.9,124.1c0.3,0,0.5,0,0.7,0c4.9,0,9.9,0,14.8,0c0.2,0,0.5,0,0.7,0c0.5-0.1,0.9-0.3,1.1-0.8   c0.1-0.3,0.2-0.6,0.3-1c4.1,6.5,8.1,12.9,12,19.3c-0.8,0-1.6,0.1-2.3-0.1c-0.3-0.1-0.6-0.4-0.8-0.8c-1.9-3-3.8-6-5.6-9.1   c-0.5-0.9-1.1-1.2-2.1-1.2c-4.5,0.1-9.1,0.1-13.6,0.1c-1,0-1.6-0.3-2.1-1.2c-0.9-1.6-1.9-3.1-2.8-4.7   C188.1,124.6,188,124.4,187.9,124.1z"></path>
	<path class="st1" d="M177.5,83.3c1.2,0,2.4,0,3.6,0c0.2,6.6,0.2,13.2,0.1,19.9c-0.3-0.1-0.5-0.2-0.7-0.3c-0.8-0.5-1.5-1-2.4-1.5   c-0.4-0.3-0.6-0.6-0.6-1.1c0-5.5,0-11,0-16.5C177.5,83.6,177.5,83.5,177.5,83.3z"></path>
	<path class="st1" d="M167,129.1c-0.2-0.3-0.4-0.7-0.6-1c-1.2-2-1.2-2-1.2-4.2c0-1.8,0-3.6,0-5.4c0-0.2,0-0.3,0-0.5   c0.2,0.2,0.3,0.2,0.4,0.3c0.9,1.4,1.7,2.7,1.6,4.5c-0.1,2,0,3.9,0,6c0,0.1-0.1,0.3-0.1,0.4C167.1,129.1,167.1,129.1,167,129.1z"></path>
</g>
</svg>
